<svg xmlns="http://www.w3.org/2000/svg" xmlns:xlink="http://www.w3.org/1999/xlink" width="95" height="101" viewBox="0 0 95 101"><defs><linearGradient id="a" x1="0.5" x2="0.5" y2="1" gradientUnits="objectBoundingBox"><stop offset="0" stop-color="#7a61f4"/><stop offset="1" stop-color="#b3a3ff"/></linearGradient></defs><g transform="translate(-171 -268)"><path d="M0,0H76a8,8,0,0,1,8,8V76a8,8,0,0,1-8,8H8a8,8,0,0,1-8-8V0A0,0,0,0,1,0,0Z" transform="translate(266 369) rotate(180)" opacity="0.8" fill="url(#a)"/><path d="M0,0H76a8,8,0,0,1,8,8V76a8,8,0,0,1-8,8H8a8,8,0,0,1-8-8V0A0,0,0,0,1,0,0Z" transform="translate(171 268)" opacity="0.8" fill="url(#a)"/><text transform="translate(238 335)" fill="#fff" font-size="51" font-family="Montserrat-Regular, Montserrat"><tspan x="-36.618" y="0">P</tspan></text></g></svg>